<svg id="Calque_1" data-name="Calque 1" xmlns="http://www.w3.org/2000/svg" width="17" height="17" viewBox="0 0 17 17"><defs><style>.cls-1{fill:#c8c8c8;}</style></defs><path class="cls-1" d="M15.18,2.71a.62.62,0,0,1,.61.61V16.68a.62.62,0,0,1-.61.61H1.82a.62.62,0,0,1-.61-.61V3.32a.62.62,0,0,1,.61-.61H15.18m0-1.21H1.82A1.83,1.83,0,0,0,0,3.32V16.68A1.83,1.83,0,0,0,1.82,18.5H15.18A1.83,1.83,0,0,0,17,16.68V3.32A1.83,1.83,0,0,0,15.18,1.5Z" transform="translate(0 -1.5)"/><path class="cls-1" d="M9.18,10.68H12.9a.46.46,0,0,0,.46-.45V9.77a.46.46,0,0,0-.46-.45H4.1a.46.46,0,0,0-.46.45v.46a.46.46,0,0,0,.46.45H7.82" transform="translate(0 -1.5)"/></svg>